<svg xmlns="http://www.w3.org/2000/svg" viewBox="526.063 400.758 113.385 98.965" fill="#fff" fill-rule="nonzero" role="img" aria-label="IMM – Institut Montsouris"><path d="M550.497 423.871L550.497 463.781C550.497 464.019 550.306 464.212 550.066 464.212L549.288 464.212C547.011 464.212 545.166 462.367 545.166 460.09L545.166 423.871C545.166 423.633 545.359 423.44 545.597 423.44L550.066 423.44C550.306 423.44 550.497 423.633 550.497 423.871"/><path d="M594.938 423.859L594.938 463.77C594.938 464.008 594.745 464.202 594.507 464.202L593.727 464.202C591.452 464.202 589.605 462.356 589.605 460.08L589.605 437.121L581.466 454.815C580.143 457.692 577.241 459.55 574.075 459.55C573.927 459.55 573.791 459.476 573.711 459.352C573.632 459.229 573.621 459.072 573.682 458.94L576.036 453.819C576.052 453.779 576.077 453.743 576.105 453.712L589.605 424.363L589.605 423.859C589.605 423.621 589.798 423.428 590.038 423.428L594.507 423.428C594.745 423.428 594.938 423.621 594.938 423.859"/><path d="M572.97 454.941L572.607 455.728C572.538 455.882 572.386 455.979 572.218 455.98C572.052 455.984 571.898 455.885 571.825 455.734L562.875 436.857L562.875 460.079C562.875 462.357 561.029 464.201 558.754 464.201L557.973 464.201C557.736 464.201 557.543 464.009 557.543 463.77L557.543 423.859C557.543 423.62 557.736 423.427 557.973 423.427L561.466 423.427L561.954 423.437L562.107 423.429C562.116 423.429 562.127 423.427 562.136 423.427L562.443 423.427C562.682 423.427 562.875 423.62 562.875 423.859L562.875 424.412L572.913 445.582C574.318 448.546 574.339 451.959 572.97 454.941"/><path d="M617.403 454.941L617.041 455.728C616.97 455.882 616.818 455.979 616.65 455.98C616.489 455.984 616.33 455.885 616.259 455.734L607.307 436.857L607.307 460.079C607.307 462.357 605.462 464.201 603.184 464.201L602.407 464.201C602.169 464.201 601.975 464.009 601.975 463.77L601.975 423.859C601.975 423.62 602.169 423.427 602.407 423.427L605.898 423.427L606.387 423.437L606.541 423.429C606.55 423.429 606.557 423.427 606.569 423.427L606.875 423.427C607.114 423.427 607.307 423.62 607.307 423.859L607.307 424.412L617.346 445.582C618.752 448.546 618.773 451.959 617.403 454.941"/><path d="M638.939 423.428L634.47 423.428C634.232 423.428 634.039 423.621 634.039 423.859L634.039 424.362L620.538 453.712C620.509 453.744 620.486 453.78 620.466 453.819L618.116 458.94C618.055 459.073 618.064 459.23 618.145 459.351C618.223 459.476 618.361 459.551 618.507 459.551C621.675 459.551 624.577 457.692 625.9 454.815L634.039 437.121L634.039 460.08C634.039 462.357 635.884 464.201 638.161 464.201L638.939 464.201C639.177 464.201 639.37 464.009 639.37 463.771L639.37 423.859C639.37 423.621 639.177 423.428 638.939 423.428"/><path d="M545.245 477.054L546.158 477.054L546.158 469.982L545.245 469.982Z"/><path d="M547.602 471.301L548.414 471.301L548.414 471.673L548.459 471.628C548.519 471.568 548.585 471.514 548.657 471.465C548.728 471.416 548.815 471.372 548.916 471.335C549.018 471.297 549.132 471.279 549.26 471.279L550.952 471.279C551.328 471.279 551.623 471.387 551.837 471.605C552.052 471.824 552.159 472.132 552.159 472.53L552.159 477.053L551.324 477.053L551.324 472.824C551.324 472.591 551.27 472.41 551.161 472.282C551.052 472.154 550.899 472.091 550.704 472.091L549.136 472.091C548.91 472.091 548.734 472.162 548.606 472.305C548.478 472.448 548.414 472.628 548.414 472.846L548.414 477.053L547.602 477.053"/><path d="M553.558 476.275L556.547 476.275C556.682 476.275 556.795 476.237 556.885 476.162C556.976 476.087 557.021 475.986 557.021 475.858L557.021 475.26C557.021 475.155 556.996 475.066 556.947 474.995C556.898 474.924 556.81 474.869 556.682 474.831L554.043 474.076C553.81 474.008 553.643 473.897 553.541 473.743C553.44 473.589 553.389 473.373 553.389 473.094L553.389 472.316C553.389 471.993 553.481 471.741 553.665 471.56C553.849 471.38 554.107 471.29 554.438 471.29L557.618 471.29L557.618 472.068L554.663 472.079C554.513 472.079 554.398 472.115 554.319 472.186C554.24 472.258 554.201 472.365 554.201 472.508L554.201 472.936C554.201 473.049 554.225 473.143 554.274 473.218C554.323 473.294 554.408 473.346 554.528 473.376L557.201 474.177C557.397 474.23 557.549 474.337 557.658 474.499C557.767 474.661 557.822 474.865 557.822 475.114L557.822 476.072C557.822 476.252 557.776 476.42 557.686 476.574C557.596 476.728 557.47 476.847 557.308 476.929C557.147 477.012 556.968 477.053 556.773 477.053L553.558 477.053"/><path d="M560.235 476.726C560.009 476.509 559.897 476.192 559.897 475.78L559.897 472.069L558.396 472.069L558.396 471.289L559.897 471.289L559.897 470.569L560.731 470.219L560.731 471.289L562.66 471.289L562.66 472.069L560.731 472.069L560.731 475.632C560.731 475.746 560.759 475.853 560.816 475.955C560.872 476.055 560.949 476.135 561.047 476.191C561.145 476.248 561.258 476.275 561.386 476.275L562.728 476.275L562.728 477.053L561.149 477.053C560.765 477.053 560.461 476.944 560.235 476.726"/><path d="M563.878 470.523L564.713 470.523L564.713 469.767L563.878 469.767ZM563.878 477.054L564.713 477.054L564.713 471.289L563.878 471.289Z"/><path d="M567.691 476.726C567.465 476.509 567.353 476.192 567.353 475.78L567.353 472.069L565.852 472.069L565.852 471.289L567.353 471.289L567.353 470.569L568.187 470.219L568.187 471.289L570.116 471.289L570.116 472.069L568.187 472.069L568.187 475.632C568.187 475.746 568.215 475.853 568.271 475.955C568.328 476.055 568.405 476.135 568.503 476.191C568.601 476.248 568.714 476.275 568.842 476.275L570.184 476.275L570.184 477.053L568.605 477.053C568.221 477.053 567.917 476.944 567.691 476.726"/><path d="M571.548 476.75C571.33 476.546 571.221 476.241 571.221 475.835L571.221 471.289L572.056 471.289L572.056 475.61C572.056 475.738 572.084 475.852 572.14 475.954C572.197 476.055 572.274 476.134 572.371 476.191C572.469 476.248 572.578 476.275 572.699 476.275L574.255 476.275C574.375 476.275 574.49 476.241 574.599 476.173C574.708 476.107 574.798 476.016 574.87 475.903C574.941 475.791 574.977 475.666 574.977 475.532L574.988 471.289L575.8 471.289L575.8 477.053L574.988 477.053L574.988 476.693C574.921 476.798 574.813 476.884 574.667 476.952C574.52 477.019 574.36 477.053 574.187 477.053L572.416 477.053C572.056 477.053 571.766 476.952 571.548 476.75"/><path d="M578.778 476.726C578.552 476.509 578.44 476.192 578.44 475.78L578.44 472.069L576.939 472.069L576.939 471.289L578.44 471.289L578.44 470.569L579.274 470.219L579.274 471.289L581.203 471.289L581.203 472.069L579.274 472.069L579.274 475.632C579.274 475.746 579.302 475.853 579.359 475.955C579.415 476.055 579.492 476.135 579.59 476.191C579.688 476.248 579.801 476.275 579.928 476.275L581.271 476.275L581.271 477.053L579.692 477.053C579.308 477.053 579.004 476.944 578.778 476.726"/><path d="M585.771 469.982L586.662 469.982L589.313 474.663L588.918 474.663L591.557 469.982L592.426 469.982L592.426 477.054L591.557 477.054L591.557 471.234L591.76 471.279L589.392 475.475L588.828 475.475L586.459 471.279L586.651 471.234L586.651 477.054L585.771 477.054"/><path d="M594.106 476.738C593.873 476.528 593.756 476.208 593.756 475.779L593.756 472.587C593.756 472.174 593.873 471.854 594.106 471.629C594.339 471.403 594.67 471.29 595.098 471.29L596.982 471.29C597.418 471.29 597.754 471.399 597.986 471.617C598.22 471.835 598.336 472.158 598.336 472.587L598.336 475.779C598.336 476.193 598.215 476.509 597.975 476.727C597.734 476.945 597.407 477.054 596.993 477.054L595.098 477.054C594.67 477.054 594.339 476.948 594.106 476.738M597.208 476.185C597.305 476.125 597.381 476.046 597.433 475.948C597.486 475.851 597.513 475.746 597.513 475.633L597.513 472.734C597.513 472.516 597.452 472.35 597.332 472.237C597.213 472.125 597.05 472.068 596.847 472.068L595.234 472.068C595.031 472.068 594.873 472.127 594.761 472.243C594.647 472.36 594.591 472.524 594.591 472.734L594.591 475.633C594.591 475.753 594.615 475.862 594.664 475.96C594.713 476.057 594.788 476.135 594.89 476.191C594.991 476.248 595.106 476.275 595.234 476.275L596.847 476.275C596.989 476.275 597.111 476.246 597.208 476.185"/><path d="M599.667 471.301L600.479 471.301L600.479 471.673L600.524 471.628C600.584 471.568 600.65 471.514 600.722 471.465C600.793 471.416 600.88 471.372 600.981 471.335C601.082 471.297 601.197 471.279 601.325 471.279L603.017 471.279C603.393 471.279 603.688 471.387 603.902 471.605C604.117 471.824 604.224 472.132 604.224 472.53L604.224 477.053L603.389 477.053L603.389 472.824C603.389 472.591 603.335 472.41 603.226 472.282C603.116 472.154 602.964 472.091 602.769 472.091L601.201 472.091C600.975 472.091 600.798 472.162 600.671 472.305C600.543 472.448 600.479 472.628 600.479 472.846L600.479 477.053L599.667 477.053"/><path d="M606.988 476.726C606.761 476.509 606.648 476.192 606.648 475.78L606.648 472.069L605.148 472.069L605.148 471.289L606.648 471.289L606.648 470.569L607.483 470.219L607.483 471.289L609.413 471.289L609.413 472.069L607.483 472.069L607.483 475.632C607.483 475.746 607.511 475.853 607.568 475.955C607.624 476.055 607.701 476.135 607.799 476.191C607.897 476.248 608.01 476.275 608.138 476.275L609.48 476.275L609.48 477.053L607.901 477.053C607.517 477.053 607.213 476.944 606.988 476.726"/><path d="M610.687 476.275L613.676 476.275C613.811 476.275 613.924 476.237 614.014 476.162C614.104 476.087 614.149 475.986 614.149 475.858L614.149 475.26C614.149 475.155 614.125 475.066 614.076 474.995C614.027 474.924 613.939 474.869 613.811 474.831L611.172 474.076C610.939 474.008 610.771 473.897 610.67 473.743C610.568 473.589 610.518 473.373 610.518 473.094L610.518 472.316C610.518 471.993 610.609 471.741 610.794 471.56C610.978 471.38 611.236 471.29 611.567 471.29L614.747 471.29L614.747 472.068L611.792 472.079C611.642 472.079 611.527 472.115 611.448 472.186C611.369 472.258 611.33 472.365 611.33 472.508L611.33 472.936C611.33 473.049 611.354 473.143 611.403 473.218C611.452 473.294 611.537 473.346 611.657 473.376L614.33 474.177C614.526 474.23 614.678 474.337 614.787 474.499C614.896 474.661 614.95 474.865 614.95 475.114L614.95 476.072C614.95 476.252 614.905 476.42 614.815 476.574C614.725 476.728 614.599 476.847 614.437 476.929C614.276 477.012 614.097 477.053 613.902 477.053L610.687 477.053"/><path d="M616.405 476.738C616.173 476.528 616.055 476.208 616.055 475.779L616.055 472.587C616.055 472.174 616.173 471.854 616.405 471.629C616.639 471.403 616.97 471.29 617.398 471.29L619.282 471.29C619.718 471.29 620.053 471.399 620.286 471.617C620.518 471.835 620.634 472.158 620.634 472.587L620.634 475.779C620.634 476.193 620.514 476.509 620.275 476.727C620.034 476.945 619.707 477.054 619.293 477.054L617.398 477.054C616.97 477.054 616.639 476.948 616.405 476.738M619.507 476.185C619.605 476.125 619.68 476.046 619.732 475.948C619.786 475.851 619.812 475.746 619.812 475.633L619.812 472.734C619.812 472.516 619.752 472.35 619.632 472.237C619.512 472.125 619.35 472.068 619.146 472.068L617.534 472.068C617.33 472.068 617.173 472.127 617.059 472.243C616.946 472.36 616.891 472.524 616.891 472.734L616.891 475.633C616.891 475.753 616.914 475.862 616.964 475.96C617.013 476.057 617.088 476.135 617.189 476.191C617.291 476.248 617.405 476.275 617.534 476.275L619.146 476.275C619.289 476.275 619.409 476.246 619.507 476.185"/><path d="M622.18 476.75C621.963 476.546 621.854 476.241 621.854 475.835L621.854 471.289L622.688 471.289L622.688 475.61C622.688 475.738 622.716 475.852 622.772 475.954C622.829 476.055 622.906 476.134 623.004 476.191C623.102 476.248 623.211 476.275 623.33 476.275L624.888 476.275C625.007 476.275 625.122 476.241 625.231 476.173C625.341 476.107 625.43 476.016 625.502 475.903C625.573 475.791 625.609 475.666 625.609 475.532L625.62 471.289L626.432 471.289L626.432 477.053L625.62 477.053L625.62 476.693C625.552 476.798 625.445 476.884 625.298 476.952C625.152 477.019 624.993 477.053 624.82 477.053L623.05 477.053C622.688 477.053 622.398 476.952 622.18 476.75"/><path d="M627.877 471.301L628.688 471.301L628.688 471.684C628.802 471.557 628.929 471.459 629.071 471.391C629.214 471.324 629.377 471.29 629.557 471.29L631.711 471.29L631.711 472.068L629.557 472.068C629.293 472.068 629.086 472.153 628.931 472.322C628.777 472.491 628.7 472.719 628.7 473.004L628.7 477.053L627.877 477.053"/><path d="M632.85 470.523L633.684 470.523L633.684 469.767L632.85 469.767ZM632.85 477.054L633.684 477.054L633.684 471.289L632.85 471.289Z"/><path d="M635.186 476.275L638.175 476.275C638.309 476.275 638.423 476.237 638.513 476.162C638.602 476.087 638.648 475.986 638.648 475.858L638.648 475.26C638.648 475.155 638.623 475.066 638.575 474.995C638.525 474.924 638.438 474.869 638.309 474.831L635.67 474.076C635.436 474.008 635.27 473.897 635.168 473.743C635.066 473.589 635.016 473.373 635.016 473.094L635.016 472.316C635.016 471.993 635.107 471.741 635.293 471.56C635.477 471.38 635.734 471.29 636.066 471.29L639.245 471.29L639.245 472.068L636.291 472.079C636.141 472.079 636.025 472.115 635.946 472.186C635.868 472.258 635.829 472.365 635.829 472.508L635.829 472.936C635.829 473.049 635.852 473.143 635.902 473.218C635.95 473.294 636.034 473.346 636.155 473.376L638.829 474.177C639.025 474.23 639.177 474.337 639.286 474.499C639.395 474.661 639.448 474.865 639.448 475.114L639.448 476.072C639.448 476.252 639.404 476.42 639.313 476.574C639.223 476.728 639.098 476.847 638.936 476.929C638.775 477.012 638.595 477.053 638.4 477.053L635.186 477.053"/><path d="M607.098 499.723L526.063 499.723L526.063 400.758L607.098 400.758L607.098 412.304L602.128 412.304L602.128 405.728L531.033 405.728L531.033 494.753L602.128 494.753L602.128 487.21L607.098 487.21"/></svg>
